<svg width="790" height="825" viewBox="0 0 790 825" fill="none" xmlns="http://www.w3.org/2000/svg">
<path fill-rule="evenodd" clip-rule="evenodd" d="M369.166 869.941C382.44 873.498 390.352 887.011 386.839 900.125C383.325 913.238 369.716 920.985 356.442 917.428C343.168 913.871 335.256 900.358 338.77 887.245C342.284 874.131 355.893 866.384 369.166 869.941ZM802.397 855.391C812.528 817.581 807.172 779.228 790.191 746.932C814.891 725.691 833.635 697.149 842.667 663.445C866.794 573.401 812.463 480.608 721.317 456.185C711.123 453.454 700.901 451.693 690.751 450.847C699.941 369.127 647.522 290.509 564.716 268.322C497.595 250.337 429.226 274.444 388.212 324.361C363.949 276.338 319.831 238.332 263.392 223.209C158.971 195.23 51.9142 256.173 24.2734 359.33C-3.36733 462.486 58.875 568.793 163.296 596.773C178.578 600.868 193.917 603.058 209.055 603.49C224.931 607.595 242.499 617.969 249.742 640.316C253.034 721.749 309.248 795.355 393.012 817.8C411.458 822.742 429.987 824.868 448.133 824.443C468.31 826.838 496.268 836.421 509.981 861.761C525.508 908.865 564.051 947.608 615.966 961.519C697.379 983.333 780.847 935.818 802.397 855.391ZM201.067 670.514C206.923 648.659 193.736 626.136 171.613 620.208C149.49 614.28 126.809 627.192 120.953 649.047C115.097 670.902 128.284 693.425 150.407 699.353C172.53 705.281 195.211 692.369 201.067 670.514Z" fill="url(#paint0_linear_52_4992)"/>
<path fill-rule="evenodd" clip-rule="evenodd" d="M772.665 78.8484C785.939 82.4051 799.548 74.6581 803.062 61.545C806.575 48.4318 798.663 34.9183 785.389 31.3616C772.115 27.8049 758.507 35.5519 754.993 48.665C751.479 61.7781 759.391 75.2917 772.665 78.8484ZM1140.58 308.064C1130.45 345.875 1106.63 376.411 1075.78 395.89C1086.55 426.635 1088.51 460.725 1079.48 494.43C1055.35 584.473 961.905 637.669 870.758 613.247C860.565 610.515 850.832 606.929 841.618 602.587C808.718 677.954 724.012 719.829 641.207 697.641C574.086 679.656 526.93 624.594 516.369 560.857C471.345 590.315 414.135 601.17 357.696 586.047C253.275 558.068 191.033 451.761 218.673 348.604C246.314 245.448 353.371 184.505 457.792 212.484C473.074 216.579 487.453 222.352 500.779 229.547C516.581 233.929 536.982 233.729 554.428 217.997C597.996 149.12 683.482 113.483 767.246 135.927C785.692 140.87 802.802 148.293 818.305 157.735C836.976 165.75 865.979 171.428 890.524 156.341C927.522 123.31 980.273 109.029 1032.19 122.94C1113.6 144.754 1162.13 227.637 1140.58 308.064ZM527.373 167.508C521.517 189.363 498.836 202.275 476.713 196.347C454.59 190.419 441.403 167.897 447.259 146.041C453.115 124.186 475.797 111.275 497.92 117.202C520.043 123.13 533.229 145.653 527.373 167.508Z" fill="url(#paint1_linear_52_4992)"/>
<defs>
<linearGradient id="paint0_linear_52_4992" x1="612.681" y1="501.3" x2="123.074" y2="613.906" gradientUnits="userSpaceOnUse">
<stop stop-color="#A7C0FF"/>
<stop offset="1" stop-color="#BD98DC"/>
</linearGradient>
<linearGradient id="paint1_linear_52_4992" x1="799.234" y1="519.858" x2="431.525" y2="177.535" gradientUnits="userSpaceOnUse">
<stop stop-color="#A7C0FF"/>
<stop offset="1" stop-color="#BD98DC"/>
</linearGradient>
</defs>
</svg>
