<svg width="730" height="529" viewBox="0 0 730 529" fill="none" xmlns="http://www.w3.org/2000/svg">
<path fill-rule="evenodd" clip-rule="evenodd" d="M604.241 1077C604.241 1060.43 590.645 1047 573.874 1047C557.102 1047 543.506 1060.43 543.506 1077C543.506 1093.57 557.102 1107 573.874 1107C590.645 1107 604.241 1093.57 604.241 1077ZM312.713 865C312.713 837.386 290.052 815 262.1 815C234.147 815 211.487 837.386 211.487 865C211.487 892.614 234.147 915 262.1 915C290.052 915 312.713 892.614 312.713 865ZM617.61 30C617.61 46.5686 603.71 60 586.564 60C569.417 60 555.517 46.5686 555.517 30C555.517 13.4314 569.417 0 586.564 0C603.71 0 617.61 13.4314 617.61 30ZM1054.26 338.003C1085.16 305.295 1104 261.774 1104 214C1104 112.38 1018.75 30 913.583 30C846.523 30 787.559 63.4983 753.634 114.123C728.924 139.664 692.133 142.13 667.042 138.58C645.309 132.347 622.291 129 598.465 129C490.263 129 398.744 198.015 368.478 292.974C352.532 317.031 328.009 323.711 307.549 323.536C289.165 319.263 269.971 317 250.23 317C115.345 317 6 422.661 6 553C6 683.339 115.345 789 250.23 789C323.136 789 388.58 758.132 433.33 709.183C466.641 780.984 541.255 831 627.959 831C734.922 831 823.487 754.878 838.801 655.638C851.308 657.846 864.196 659 877.363 659C995.101 659 1090.55 566.771 1090.55 453C1090.55 410.414 1077.17 370.846 1054.26 338.003ZM267.823 292C296.4 292 319.566 269.614 319.566 242C319.566 214.386 296.4 192 267.823 192C239.246 192 216.079 214.386 216.079 242C216.079 269.614 239.246 292 267.823 292Z" fill="url(#paint0_linear_44_3483)"/>
<path fill-rule="evenodd" clip-rule="evenodd" d="M1074 900C1074 852.226 1055.57 808.705 1025.35 775.997C1047.76 743.154 1060.84 703.586 1060.84 661C1060.84 547.229 967.481 455 852.317 455C839.438 455 826.831 456.154 814.597 458.362C799.618 359.122 712.99 283 608.364 283C523.556 283 450.573 333.016 417.99 404.817C374.218 355.868 310.204 325 238.892 325C106.955 325 0 430.661 0 561C0 691.339 106.955 797 238.892 797C258.201 797 276.976 794.737 294.958 790.464C314.97 790.289 338.958 796.969 354.555 821.025C384.159 915.985 473.678 985 579.515 985C602.821 985 625.335 981.653 646.593 975.42C671.136 971.87 707.122 974.336 731.292 999.877C764.475 1050.5 822.15 1084 887.745 1084C990.611 1084 1074 1001.62 1074 900Z" fill="url(#paint1_linear_44_3483)"/>
<defs>
<linearGradient id="paint0_linear_44_3483" x1="292.66" y1="552.834" x2="914.283" y2="631.627" gradientUnits="userSpaceOnUse">
<stop stop-color="#A7C0FF"/>
<stop offset="1" stop-color="#BD98DC"/>
</linearGradient>
<linearGradient id="paint1_linear_44_3483" x1="835.5" y1="907.5" x2="156.5" y2="575.5" gradientUnits="userSpaceOnUse">
<stop stop-color="#AD93DF"/>
<stop offset="1" stop-color="#A7C0FF"/>
</linearGradient>
</defs>
</svg>
