<svg width="465" height="350" viewBox="0 0 465 350" fill="none" xmlns="http://www.w3.org/2000/svg">
<path fill-rule="evenodd" clip-rule="evenodd" d="M291 122.789C297.871 110.888 312.972 106.743 324.729 113.531C336.486 120.319 340.447 135.469 333.576 147.37C326.705 159.271 311.604 163.416 299.847 156.628C288.09 149.84 284.129 134.69 291 122.789ZM281.152 -315.727C316.742 -323.77 355.175 -319.018 389.075 -299.446C461.184 -257.813 485.477 -164.892 443.334 -91.899C416.461 -45.3532 369.062 -18.151 319.545 -15.3447C291.519 -8.65774 275.026 15.8675 267.491 34.7372C263.205 52.3755 256.356 69.7228 246.808 86.2607C203.448 161.361 117.801 196.609 38.2901 178.713C14.8301 179.925 0.26246 194.209 -7.81175 208.482C-12.147 222.992 -18.2326 237.242 -26.1435 250.944C-80.1955 344.565 -198.989 377.172 -291.477 323.774C-383.965 270.376 -415.123 151.194 -361.071 57.5731C-331.856 6.97059 -283.726 -25.8071 -231.06 -36.8137C-268.661 -89.3504 -274.252 -161.629 -239.507 -221.808C-196.644 -296.05 -107.138 -326.335 -30.5817 -296.307C-27.1365 -305.893 -22.7904 -315.311 -17.514 -324.45C29.6671 -406.17 133.36 -434.632 214.091 -388.022C244.31 -370.575 267.028 -345.083 281.152 -315.727Z" fill="url(#paint0_linear_44_3484)"/>
<path fill-rule="evenodd" clip-rule="evenodd" d="M-368.703 -471.711C-361.832 -483.612 -365.793 -498.762 -377.55 -505.55C-389.307 -512.338 -404.408 -508.193 -411.279 -496.292C-418.15 -484.391 -414.189 -469.24 -402.432 -462.453C-390.675 -455.665 -375.574 -459.81 -368.703 -471.711ZM-52.0745 -767.763C-18.1747 -748.191 5.15717 -717.283 15.9866 -682.44C48.472 -684.886 81.9081 -677.958 112.127 -660.511C192.858 -613.901 220.055 -509.869 172.874 -428.149C167.598 -419.01 161.615 -410.537 155.036 -402.761C219.319 -351.475 237.844 -258.818 194.981 -184.576C160.236 -124.397 94.8457 -93.0992 30.5469 -99.3944C47.3481 -48.2807 43.0265 9.78941 13.8111 60.3919C-40.2409 154.013 -159.035 186.62 -251.523 133.222C-344.01 79.8245 -375.169 -39.3578 -321.117 -132.979C-313.206 -146.681 -303.908 -159.076 -293.509 -170.085C-285.186 -184.214 -280.099 -203.972 -290.78 -224.895C-346.034 -284.806 -358.332 -376.602 -314.972 -451.703C-305.424 -468.241 -293.825 -482.846 -280.693 -495.377C-268.119 -511.338 -255.126 -537.883 -263.348 -565.498C-285.677 -609.784 -285.818 -664.434 -258.945 -710.98C-216.803 -783.972 -124.184 -809.395 -52.0745 -767.763ZM-346.551 -211.83C-326.956 -200.517 -320.355 -175.267 -331.806 -155.432C-343.258 -135.597 -368.426 -128.688 -388.021 -140.001C-407.616 -151.315 -414.217 -176.565 -402.766 -196.4C-391.314 -216.235 -366.146 -223.143 -346.551 -211.83Z" fill="url(#paint1_linear_44_3484)"/>
<defs>
<linearGradient id="paint0_linear_44_3484" x1="-2.05346" y1="-207.839" x2="-20.0039" y2="294.23" gradientUnits="userSpaceOnUse">
<stop stop-color="#A7C0FF"/>
<stop offset="1" stop-color="#BD98DC"/>
</linearGradient>
<linearGradient id="paint1_linear_44_3484" x1="64.156" y1="-383.233" x2="-361.673" y2="-116.653" gradientUnits="userSpaceOnUse">
<stop stop-color="#A7C0FF"/>
<stop offset="1" stop-color="#BD98DC"/>
</linearGradient>
</defs>
</svg>
