<svg width="1239" height="320" viewBox="0 0 1239 320" fill="none" xmlns="http://www.w3.org/2000/svg">
<g clip-path="url(#clip0_44_4607)">
<path fill-rule="evenodd" clip-rule="evenodd" d="M352.868 1140.73C362.529 1124 356.629 1102.5 339.691 1092.72C322.753 1082.94 301.19 1088.58 291.529 1105.32C281.868 1122.05 287.767 1143.54 304.705 1153.32C321.644 1163.1 343.207 1157.46 352.868 1140.73ZM182.055 756.634C198.157 728.745 188.325 692.924 160.094 676.625C131.864 660.326 95.9253 669.721 79.8236 697.61C63.722 725.499 73.5544 761.32 101.785 777.619C130.016 793.918 165.954 784.522 182.055 756.634ZM1104.87 195.114C1095.2 211.847 1073.33 217.307 1056.02 207.309C1038.7 197.311 1032.49 175.641 1042.16 158.908C1051.82 142.175 1073.69 136.715 1091 146.712C1108.32 156.71 1114.53 178.38 1104.87 195.114ZM1238.27 656.789C1288.54 641.769 1332.95 608.802 1360.8 560.553C1420.06 457.922 1381.99 325.013 1275.78 263.693C1208.06 224.591 1128.97 224.041 1065.19 255.387C1025.34 266.775 986.747 247.813 963.477 229.596C945.163 210.629 923.868 193.828 899.804 179.935C790.528 116.844 657.856 133.18 571.919 211.435C541.788 226.434 513.125 218.882 492.565 206.775C476.489 191.74 458.423 178.262 438.486 166.751C302.26 88.1011 130.217 131.054 54.2177 262.689C-21.782 394.325 27.0409 564.794 163.267 643.444C236.897 685.955 320.992 692.94 394.728 669.598C386.503 761.537 432.696 855.557 520.261 906.113C628.289 968.483 762.12 943.245 835.452 851.948C846.796 861.47 859.139 870.15 872.437 877.828C991.346 946.48 1141.52 908.987 1207.86 794.085C1232.69 751.075 1242.25 703.316 1238.27 656.789ZM52.2582 118.166C81.1196 134.829 117.569 125.729 133.671 97.8402C149.773 69.9514 139.429 33.835 110.567 17.1718C81.7059 0.508706 45.2563 9.60889 29.1546 37.4977C13.053 65.3865 23.3968 101.503 52.2582 118.166Z" fill="url(#paint0_linear_44_4607)"/>
<path fill-rule="evenodd" clip-rule="evenodd" d="M930.505 1235.88C958.361 1187.63 965.125 1132.93 953.677 1082.28C995.459 1062.18 1031.74 1029.84 1056.57 986.832C1122.91 871.93 1082.4 724.346 966.093 657.195C953.086 649.685 939.681 643.499 926.038 638.596C968.776 529.635 925.672 402.244 820.006 341.237C734.355 291.787 631.482 299.744 556.708 353.26C541.043 278.302 494.391 209.8 422.37 168.219C289.122 91.2878 119.493 135.635 43.4933 267.27C-32.5063 398.905 13.9027 567.981 147.151 644.912C166.652 656.171 186.932 664.832 207.584 671.003C227.898 682.494 248.23 703.228 249.955 736.619C224.484 849.785 274.651 971.684 381.54 1033.4C405.077 1046.98 429.766 1056.73 454.87 1062.83C481.727 1073.56 516.634 1097.03 526.152 1136.92C530.146 1207.4 568.862 1274.86 635.11 1313.11C738.998 1373.09 871.251 1338.51 930.505 1235.88Z" fill="url(#paint1_linear_44_4607)"/>
</g>
<defs>
<linearGradient id="paint0_linear_44_4607" x1="343.825" y1="429.671" x2="925.686" y2="871.711" gradientUnits="userSpaceOnUse">
<stop stop-color="#A7C0FF"/>
<stop offset="1" stop-color="#BD98DC"/>
</linearGradient>
<linearGradient id="paint1_linear_44_4607" x1="685.26" y1="1104.39" x2="193.094" y2="373.168" gradientUnits="userSpaceOnUse">
<stop stop-color="#AD93DF"/>
<stop offset="1" stop-color="#A7C0FF"/>
</linearGradient>
<clipPath id="clip0_44_4607">
<rect width="1240" height="320" fill="white"/>
</clipPath>
</defs>
</svg>
