<svg width="1054" height="580" viewBox="0 0 1054 580" fill="none" xmlns="http://www.w3.org/2000/svg">
<path fill-rule="evenodd" clip-rule="evenodd" d="M4.47639 1062.82C16.1921 1051.1 16.0757 1031.99 4.21645 1020.13C-7.64282 1008.27 -26.7541 1008.16 -38.4699 1019.87C-50.1856 1031.59 -50.0692 1050.7 -38.21 1062.56C-26.3507 1074.42 -7.23933 1074.53 4.47639 1062.82ZM-51.759 706.768C-32.2328 687.242 -32.4267 655.39 -52.1922 635.625C-71.9576 615.859 -103.81 615.665 -123.336 635.191C-142.862 654.718 -142.668 686.57 -122.903 706.335C-103.137 726.101 -71.2852 726.295 -51.759 706.768ZM919.119 440.119C907.403 451.835 888.077 451.504 875.953 439.379C863.829 427.255 863.498 407.929 875.213 396.213C886.929 384.497 906.255 384.829 918.379 396.953C930.504 409.077 930.835 428.403 919.119 440.119ZM845.24 858.481C890.214 857.199 934.311 839.748 968.092 805.967C1039.95 734.11 1037.92 615.576 963.555 541.214C916.136 493.795 850.755 475.788 790.97 487.597C755.437 488.184 727.678 463.913 712.446 443.661C701.487 423.886 687.577 405.243 670.729 388.395C594.219 311.885 480.704 295.972 392.156 341.717C363.871 347.453 341.806 334.835 327.463 320.244C317.485 304.224 305.513 289.051 291.554 275.092C196.176 179.714 44.1436 177.109 -48.0201 269.273C-140.184 361.436 -137.578 513.469 -42.2007 608.846C9.35139 660.398 77.4548 684.848 143.71 681.878C116.493 756.205 133.887 844.331 195.195 905.639C270.83 981.274 387.281 990.073 468.282 930.728C475.565 941.133 483.863 951.062 493.173 960.372C576.427 1043.63 709.133 1045.9 789.581 965.452C819.694 935.339 838.216 897.904 845.24 858.481ZM134.822 154.533C163.995 183.706 210.497 184.503 238.687 156.313C266.877 128.123 266.08 81.6213 236.907 52.4483C207.734 23.2753 161.232 22.4784 133.042 50.6683C104.852 78.8582 105.649 125.36 134.822 154.533Z" fill="url(#paint0_linear_44_3512)"/>
<path fill-rule="evenodd" clip-rule="evenodd" d="M461.804 1269.83C495.585 1236.05 513.327 1192.24 515.087 1147.75C554.156 1140.37 591.384 1121.64 621.497 1091.53C701.945 1011.08 701.146 879.846 619.713 798.412C610.606 789.305 600.876 781.207 590.664 774.118C650.245 693.353 642.816 578.271 568.834 504.289C508.866 444.321 421.893 428.08 348.081 455.812C351.742 390.249 328.305 323.157 277.879 272.731C184.586 179.439 34.244 178.523 -57.9197 270.687C-150.083 362.851 -149.168 513.193 -55.875 606.486C-42.2211 620.14 -27.3452 631.815 -11.6086 641.509C2.66626 655.536 14.9044 677.221 8.92258 705.261C-37.2905 793.341 -22.7918 905.441 52.0458 980.279C68.5256 996.759 86.8124 1010.31 106.252 1020.94C126.116 1035.78 149.819 1062.97 148.849 1098.12C136.516 1157.38 153.612 1221.85 199.994 1268.23C272.731 1340.97 389.947 1341.69 461.804 1269.83Z" fill="url(#paint1_linear_44_3512)"/>
<defs>
<linearGradient id="paint0_linear_44_3512" x1="154.796" y1="471.854" x2="538.635" y2="967.123" gradientUnits="userSpaceOnUse">
<stop stop-color="#A7C0FF"/>
<stop offset="1" stop-color="#BD98DC"/>
</linearGradient>
<linearGradient id="paint1_linear_44_3512" x1="287.856" y1="1106.49" x2="42.4895" y2="391.602" gradientUnits="userSpaceOnUse">
<stop stop-color="#AD93DF"/>
<stop offset="1" stop-color="#A7C0FF"/>
</linearGradient>
</defs>
</svg>
